<svg xmlns="http://www.w3.org/2000/svg" xmlns:xlink="http://www.w3.org/1999/xlink" width="220.73772785417333" height="81.10855000000001" viewBox="40.96521975935402 65.91444375 220.73772785417333 81.10855000000001" version="1.1">
<g id="surface1">
<path style=" stroke:none;fill-rule:nonzero;fill:rgb(76.078431%,75.686275%,84.705882%);fill-opacity:1;" d="M 83.183594 86.914062 L 85.386719 86.941406 L 100.679688 87.15625 L 100.625 91.230469 L 85.328125 91.019531 L 85.203125 100.269531 L 98.1875 100.449219 L 98.128906 104.515625 L 85.144531 104.339844 L 85.023438 113.382812 L 100.316406 113.59375 L 100.257812 117.660156 L 84.964844 117.449219 L 82.761719 117.421875 L 80.691406 117.390625 L 81.109375 86.882812 Z M 47.277344 67.800781 L 103.289062 68.574219 L 103.25 71.277344 L 47.238281 70.503906 Z M 76.492188 76.121094 L 90.761719 76.316406 L 90.722656 79.019531 L 76.457031 78.824219 L 75.796875 126.769531 L 73.097656 126.730469 L 73.757812 78.785156 L 73.796875 76.082031 Z M 67.25 112.703125 L 67.71875 78.703125 L 43.230469 78.363281 L 43.269531 75.660156 L 67.757812 76 L 70.457031 76.035156 L 70.417969 78.738281 L 69.949219 112.738281 Z M 114.683594 118.175781 C 112.703125 118.148438 111.015625 117.753906 109.621094 116.996094 C 108.230469 116.230469 107.171875 115.144531 106.449219 113.714844 C 105.734375 112.292969 105.382812 110.585938 105.410156 108.585938 L 105.460938 105 C 105.488281 103.023438 105.882812 101.34375 106.640625 99.957031 C 107.402344 98.5625 108.488281 97.511719 109.902344 96.800781 C 111.3125 96.082031 113.011719 95.742188 114.992188 95.769531 C 116.121094 95.785156 117.1875 95.933594 118.183594 96.222656 C 119.179688 96.507812 120.070312 96.914062 120.863281 97.445312 C 121.648438 97.972656 122.304688 98.613281 122.824219 99.359375 L 119.703125 102.085938 C 119.097656 101.375 118.390625 100.828125 117.566406 100.4375 C 116.75 100.054688 115.894531 99.847656 115 99.835938 C 113.355469 99.8125 112.070312 100.261719 111.148438 101.171875 C 110.230469 102.085938 109.761719 103.375 109.738281 105.058594 L 109.6875 108.644531 C 109.664062 110.363281 110.097656 111.695312 110.976562 112.644531 C 111.863281 113.597656 113.144531 114.085938 114.804688 114.109375 C 115.710938 114.121094 116.582031 113.925781 117.40625 113.535156 C 118.242188 113.140625 118.957031 112.578125 119.570312 111.839844 L 122.609375 114.863281 C 122.058594 115.585938 121.375 116.191406 120.574219 116.695312 C 119.769531 117.195312 118.867188 117.570312 117.863281 117.820312 C 116.859375 118.070312 115.804688 118.191406 114.683594 118.175781 Z M 140.652344 105.019531 C 140.675781 103.480469 140.296875 102.285156 139.507812 101.4375 C 138.726562 100.585938 137.617188 100.148438 136.179688 100.128906 C 134.777344 100.109375 133.699219 100.460938 132.925781 101.179688 C 132.15625 101.894531 131.757812 102.917969 131.738281 104.246094 L 131.546875 118.09375 L 127.277344 118.035156 L 127.699219 87.527344 L 131.96875 87.585938 L 131.804688 99.300781 C 132.421875 98.378906 133.160156 97.644531 134.03125 97.09375 C 135.121094 96.398438 136.320312 96.0625 137.636719 96.082031 C 139.996094 96.113281 141.808594 96.914062 143.082031 98.476562 C 144.355469 100.042969 144.96875 102.234375 144.929688 105.058594 L 144.746094 118.277344 L 140.472656 118.21875 Z M 140.652344 105.019531 "></path>
<path style=" stroke:none;fill-rule:nonzero;fill:rgb(99.215686%,83.529412%,18.039216%);fill-opacity:1;" d="M 152.835938 95.085938 L 154.417969 95.109375 L 156.097656 95.132812 L 167.777344 95.292969 L 167.734375 98.40625 L 156.054688 98.246094 L 155.960938 105.308594 L 165.875 105.445312 L 165.832031 108.554688 L 155.917969 108.417969 L 155.820312 115.324219 L 167.5 115.484375 L 167.457031 118.589844 L 155.777344 118.429688 L 154.097656 118.40625 L 152.511719 118.382812 Z M 152.835938 95.085938 "></path>
<path style=" stroke:none;fill-rule:nonzero;fill:rgb(99.215686%,83.529412%,18.039216%);fill-opacity:1;" d="M 172.003906 102.019531 L 175.265625 102.066406 L 175.234375 104.378906 C 175.703125 103.664062 176.265625 103.089844 176.933594 102.664062 C 177.765625 102.132812 178.679688 101.871094 179.683594 101.886719 C 181.488281 101.910156 182.871094 102.519531 183.84375 103.714844 C 184.816406 104.910156 185.285156 106.585938 185.253906 108.738281 L 185.113281 118.835938 L 181.851562 118.789062 L 181.988281 108.710938 C 182.003906 107.535156 181.71875 106.625 181.113281 105.976562 C 180.515625 105.328125 179.667969 104.992188 178.574219 104.976562 C 177.503906 104.960938 176.679688 105.234375 176.085938 105.796875 C 175.5 106.351562 175.195312 107.144531 175.179688 108.167969 L 175.035156 118.695312 L 171.777344 118.652344 Z M 172.003906 102.019531 "></path>
<path style=" stroke:none;fill-rule:nonzero;fill:rgb(99.215686%,83.529412%,18.039216%);fill-opacity:1;" d="M 192.832031 109.308594 L 200.191406 109.410156 C 200.113281 108.054688 199.777344 106.992188 199.1875 106.234375 C 198.597656 105.472656 197.792969 105.085938 196.777344 105.070312 C 195.542969 105.054688 194.578125 105.445312 193.890625 106.25 C 193.199219 107.050781 192.851562 107.820312 192.832031 109.308594 Z M 192.796875 111.941406 C 192.777344 113.316406 193.128906 114.238281 193.839844 114.980469 C 194.554688 115.726562 195.582031 116.113281 196.914062 116.132812 C 197.574219 116.140625 198.234375 116.011719 198.886719 115.753906 C 199.539062 115.5 200.128906 115.132812 200.648438 114.65625 L 202.757812 116.835938 C 201.929688 117.613281 201 118.210938 199.964844 118.628906 C 198.9375 119.046875 197.902344 119.253906 196.871094 119.238281 C 195.335938 119.21875 194.027344 118.910156 192.949219 118.320312 C 191.867188 117.726562 191.050781 116.867188 190.5 115.742188 C 189.941406 114.617188 189.675781 113.269531 189.695312 111.6875 L 189.722656 109.8125 C 189.746094 108.167969 190.039062 106.765625 190.605469 105.609375 C 191.167969 104.449219 191.976562 103.578125 193.03125 102.984375 C 194.085938 102.390625 195.351562 102.101562 196.820312 102.121094 C 198.207031 102.140625 199.386719 102.507812 200.359375 103.210938 C 201.328125 103.917969 202.0625 104.933594 202.5625 106.253906 C 203.0625 107.574219 203.296875 109.160156 203.269531 110.996094 L 203.257812 112.085938 Z M 192.796875 111.941406 "></path>
<path style=" stroke:none;fill-rule:nonzero;fill:rgb(99.215686%,83.529412%,18.039216%);fill-opacity:1;" d="M 207.871094 102.515625 L 211.132812 102.5625 L 211.097656 104.878906 C 211.566406 104.171875 212.125 103.601562 212.773438 103.167969 C 213.59375 102.628906 214.492188 102.367188 215.46875 102.378906 C 216.230469 102.390625 216.914062 102.511719 217.523438 102.738281 C 218.132812 102.964844 218.664062 103.292969 219.117188 103.726562 L 216.953125 106.585938 C 216.667969 106.226562 216.304688 105.953125 215.871094 105.765625 C 215.4375 105.578125 214.9375 105.480469 214.355469 105.472656 C 213.324219 105.457031 212.519531 105.738281 211.9375 106.296875 C 211.363281 106.863281 211.0625 107.652344 211.046875 108.664062 L 210.902344 119.191406 L 207.644531 119.148438 Z M 207.871094 102.515625 "></path>
<path style=" stroke:none;fill-rule:nonzero;fill:rgb(99.215686%,83.529412%,18.039216%);fill-opacity:1;" d="M 226.5625 119.699219 C 225.34375 119.679688 224.3125 119.398438 223.460938 118.863281 C 222.613281 118.320312 221.96875 117.539062 221.535156 116.515625 C 221.101562 115.5 220.894531 114.277344 220.914062 112.855469 L 220.960938 109.191406 C 220.984375 107.757812 221.21875 106.535156 221.667969 105.53125 C 222.121094 104.519531 222.769531 103.757812 223.613281 103.238281 C 224.453125 102.722656 225.460938 102.46875 226.636719 102.484375 C 227.617188 102.5 228.515625 102.769531 229.324219 103.292969 C 229.960938 103.707031 230.5 104.25 230.9375 104.917969 L 230.96875 102.835938 L 234.234375 102.878906 L 234.011719 119.011719 C 233.988281 120.539062 233.691406 121.847656 233.113281 122.929688 C 232.542969 124.007812 231.71875 124.828125 230.640625 125.378906 C 229.566406 125.929688 228.28125 126.191406 226.773438 126.171875 C 225.527344 126.15625 224.414062 125.910156 223.4375 125.429688 C 222.453125 124.953125 221.699219 124.285156 221.164062 123.4375 L 223.398438 121.464844 C 223.820312 122.054688 224.324219 122.515625 224.910156 122.847656 C 225.5 123.171875 226.113281 123.34375 226.765625 123.355469 C 228.015625 123.371094 228.984375 123.039062 229.675781 122.359375 C 230.367188 121.679688 230.722656 120.710938 230.738281 119.449219 L 230.769531 117.332031 C 230.429688 117.945312 229.957031 118.46875 229.347656 118.898438 C 228.585938 119.445312 227.660156 119.714844 226.5625 119.699219 Z M 230.882812 108.871094 L 230.882812 108.839844 C 230.890625 108.152344 230.773438 107.554688 230.527344 107.058594 C 230.277344 106.554688 229.910156 106.167969 229.429688 105.898438 C 228.945312 105.628906 228.363281 105.492188 227.671875 105.480469 C 226.589844 105.464844 225.753906 105.792969 225.152344 106.457031 C 224.550781 107.121094 224.242188 108.066406 224.226562 109.277344 L 224.175781 112.898438 C 224.160156 114.109375 224.441406 115.046875 225.023438 115.710938 C 225.609375 116.375 226.433594 116.714844 227.515625 116.730469 C 228.210938 116.738281 228.796875 116.609375 229.285156 116.34375 C 229.773438 116.078125 230.152344 115.695312 230.414062 115.183594 C 230.675781 114.679688 230.808594 114.082031 230.820312 113.378906 L 230.824219 113.347656 Z M 230.882812 108.871094 "></path>
<path style=" stroke:none;fill-rule:evenodd;fill:rgb(99.215686%,83.529412%,18.039216%);fill-opacity:1;" d="M 237.046875 116.402344 L 240.410156 116.878906 L 235.664062 125.21875 L 238.777344 125.644531 C 238.457031 126.65625 233.976562 133.425781 233.644531 134.324219 L 239.902344 129.265625 C 240.183594 129.023438 240.390625 128.839844 240.675781 128.601562 L 246.179688 124.144531 L 241.828125 123.515625 C 242.796875 122.238281 250.601562 114.523438 250.9375 113.921875 L 246.464844 113.3125 C 246.851562 112.640625 255.433594 104.183594 256.15625 103.167969 L 244.6875 101.613281 C 244.265625 101.558594 243.839844 102.84375 243.648438 103.234375 C 243.316406 103.898438 243.011719 104.480469 242.691406 105.117188 Z M 237.046875 116.402344 "></path>
<path style=" stroke:none;fill-rule:nonzero;fill:rgb(99.215686%,83.529412%,18.039216%);fill-opacity:1;" d="M 100.089844 132.257812 C 100.191406 132.257812 100.277344 132.292969 100.339844 132.359375 C 100.40625 132.425781 100.4375 132.507812 100.433594 132.613281 C 100.433594 132.71875 100.398438 132.800781 100.335938 132.867188 C 100.269531 132.929688 100.183594 132.960938 100.082031 132.960938 L 96.796875 132.914062 L 96.671875 141.976562 C 96.667969 142.089844 96.632812 142.183594 96.554688 142.253906 C 96.480469 142.328125 96.386719 142.363281 96.277344 142.359375 C 96.164062 142.359375 96.070312 142.320312 95.996094 142.246094 C 95.925781 142.171875 95.890625 142.078125 95.890625 141.964844 L 96.015625 132.902344 L 92.730469 132.859375 C 92.628906 132.855469 92.542969 132.824219 92.480469 132.757812 C 92.417969 132.691406 92.386719 132.605469 92.386719 132.503906 C 92.386719 132.398438 92.421875 132.3125 92.488281 132.25 C 92.554688 132.1875 92.636719 132.15625 92.742188 132.15625 Z M 103.132812 142.457031 C 103.019531 142.453125 102.929688 142.417969 102.855469 142.339844 C 102.78125 142.265625 102.746094 142.171875 102.75 142.0625 L 102.878906 132.6875 C 102.878906 132.574219 102.917969 132.480469 102.992188 132.410156 C 103.066406 132.335938 103.160156 132.300781 103.273438 132.300781 L 109.515625 132.386719 C 109.621094 132.390625 109.710938 132.425781 109.789062 132.503906 C 109.863281 132.578125 109.902344 132.671875 109.902344 132.78125 C 109.898438 132.886719 109.859375 132.976562 109.78125 133.054688 C 109.703125 133.132812 109.609375 133.167969 109.507812 133.167969 L 103.652344 133.085938 L 103.597656 136.988281 L 107.894531 137.046875 C 108.007812 137.046875 108.101562 137.085938 108.171875 137.160156 C 108.246094 137.234375 108.28125 137.328125 108.277344 137.441406 C 108.277344 137.554688 108.238281 137.648438 108.164062 137.726562 C 108.089844 137.804688 107.996094 137.84375 107.882812 137.839844 L 103.585938 137.78125 L 103.535156 141.679688 L 109.386719 141.761719 C 109.492188 141.761719 109.582031 141.804688 109.660156 141.882812 C 109.734375 141.960938 109.773438 142.054688 109.773438 142.15625 C 109.769531 142.269531 109.730469 142.363281 109.652344 142.4375 C 109.570312 142.507812 109.480469 142.542969 109.378906 142.542969 Z M 117.152344 142.78125 C 116.246094 142.765625 115.40625 142.519531 114.632812 142.035156 C 113.859375 141.554688 113.25 140.90625 112.804688 140.101562 C 112.355469 139.292969 112.136719 138.421875 112.152344 137.496094 C 112.164062 136.570312 112.402344 135.707031 112.867188 134.917969 C 113.332031 134.125 113.957031 133.5 114.738281 133.039062 C 115.519531 132.578125 116.371094 132.351562 117.296875 132.367188 C 118.511719 132.382812 119.574219 132.78125 120.488281 133.566406 C 120.566406 133.628906 120.601562 133.714844 120.601562 133.828125 C 120.601562 133.933594 120.566406 134.023438 120.496094 134.105469 C 120.425781 134.1875 120.328125 134.226562 120.207031 134.226562 C 120.113281 134.222656 120.003906 134.171875 119.882812 134.066406 C 119.234375 133.46875 118.371094 133.160156 117.285156 133.144531 C 116.527344 133.132812 115.8125 133.328125 115.144531 133.726562 C 114.476562 134.125 113.941406 134.660156 113.542969 135.335938 C 113.144531 136.011719 112.941406 136.734375 112.929688 137.507812 C 112.917969 138.304688 113.101562 139.046875 113.476562 139.730469 C 113.851562 140.417969 114.367188 140.964844 115.023438 141.371094 C 115.679688 141.78125 116.394531 141.988281 117.164062 142 C 118.1875 142.011719 119.085938 141.710938 119.863281 141.085938 C 119.925781 141.046875 119.992188 141.023438 120.0625 141.027344 C 120.164062 141.027344 120.257812 141.066406 120.339844 141.144531 C 120.417969 141.226562 120.460938 141.320312 120.457031 141.433594 C 120.457031 141.546875 120.425781 141.636719 120.363281 141.707031 C 119.609375 142.441406 118.539062 142.800781 117.152344 142.78125 Z M 123.898438 142.742188 C 123.785156 142.742188 123.691406 142.703125 123.621094 142.628906 C 123.546875 142.554688 123.511719 142.460938 123.511719 142.347656 L 123.640625 132.972656 C 123.644531 132.859375 123.679688 132.769531 123.757812 132.695312 C 123.832031 132.621094 123.925781 132.585938 124.039062 132.589844 C 124.148438 132.589844 124.242188 132.628906 124.316406 132.703125 C 124.386719 132.777344 124.421875 132.871094 124.421875 132.984375 L 124.363281 137.273438 L 130.917969 137.363281 L 130.976562 133.074219 C 130.976562 132.960938 131.015625 132.871094 131.089844 132.796875 C 131.164062 132.722656 131.257812 132.6875 131.371094 132.691406 C 131.476562 132.691406 131.566406 132.730469 131.640625 132.804688 C 131.71875 132.878906 131.757812 132.972656 131.753906 133.085938 L 131.625 142.460938 C 131.625 142.574219 131.585938 142.664062 131.503906 142.738281 C 131.425781 142.808594 131.335938 142.847656 131.230469 142.84375 C 131.117188 142.84375 131.027344 142.804688 130.953125 142.730469 C 130.882812 142.65625 130.84375 142.5625 130.847656 142.449219 L 130.90625 138.066406 L 124.351562 137.976562 L 124.292969 142.359375 C 124.289062 142.472656 124.253906 142.5625 124.175781 142.636719 C 124.101562 142.710938 124.007812 142.746094 123.898438 142.742188 Z M 147.328125 132.910156 C 147.429688 132.914062 147.515625 132.949219 147.578125 133.019531 C 147.640625 133.089844 147.671875 133.175781 147.671875 133.28125 C 147.671875 133.375 147.648438 133.457031 147.605469 133.527344 L 143.941406 139.222656 L 143.894531 142.628906 C 143.894531 142.742188 143.855469 142.835938 143.78125 142.90625 C 143.707031 142.980469 143.613281 143.015625 143.5 143.015625 C 143.386719 143.011719 143.296875 142.972656 143.222656 142.898438 C 143.148438 142.824219 143.113281 142.730469 143.117188 142.617188 L 143.164062 139.210938 L 139.660156 133.414062 C 139.609375 133.320312 139.582031 133.238281 139.585938 133.167969 C 139.585938 133.0625 139.621094 132.976562 139.691406 132.910156 C 139.761719 132.839844 139.851562 132.808594 139.964844 132.808594 C 140.078125 132.808594 140.179688 132.863281 140.277344 132.96875 L 143.5625 138.503906 L 146.945312 133.152344 C 147.007812 133.058594 147.066406 132.992188 147.125 132.960938 C 147.179688 132.925781 147.25 132.910156 147.328125 132.910156 Z M 153.886719 143.289062 C 152.90625 143.273438 152.027344 143.035156 151.242188 142.566406 C 150.457031 142.101562 149.839844 141.46875 149.398438 140.671875 C 148.953125 139.871094 148.738281 138.980469 148.753906 138.003906 C 148.765625 137.03125 149.003906 136.152344 149.46875 135.367188 C 149.9375 134.578125 150.566406 133.964844 151.367188 133.519531 C 152.164062 133.074219 153.050781 132.859375 154.027344 132.875 C 155 132.886719 155.875 133.125 156.664062 133.59375 C 157.445312 134.058594 158.0625 134.691406 158.503906 135.492188 C 158.949219 136.289062 159.164062 137.175781 159.148438 138.144531 C 159.136719 139.125 158.898438 140.007812 158.433594 140.796875 C 157.964844 141.582031 157.335938 142.199219 156.539062 142.640625 C 155.738281 143.085938 154.855469 143.300781 153.886719 143.289062 Z M 153.894531 142.507812 C 154.71875 142.519531 155.46875 142.335938 156.152344 141.960938 C 156.832031 141.582031 157.367188 141.058594 157.761719 140.390625 C 158.15625 139.71875 158.359375 138.964844 158.371094 138.136719 C 158.382812 137.3125 158.199219 136.558594 157.824219 135.878906 C 157.449219 135.195312 156.925781 134.65625 156.257812 134.261719 C 155.585938 133.867188 154.839844 133.664062 154.019531 133.652344 C 153.1875 133.640625 152.433594 133.824219 151.753906 134.199219 C 151.070312 134.578125 150.535156 135.101562 150.140625 135.769531 C 149.746094 136.441406 149.542969 137.1875 149.53125 138.011719 C 149.519531 138.84375 149.703125 139.601562 150.078125 140.285156 C 150.453125 140.964844 150.976562 141.503906 151.644531 141.898438 C 152.316406 142.292969 153.066406 142.496094 153.894531 142.507812 Z M 166 143.535156 C 165.246094 143.523438 164.574219 143.363281 163.988281 143.058594 C 163.398438 142.75 162.941406 142.328125 162.621094 141.789062 C 162.300781 141.253906 162.144531 140.640625 162.152344 139.957031 L 162.242188 133.507812 C 162.246094 133.386719 162.28125 133.289062 162.355469 133.222656 C 162.429688 133.152344 162.523438 133.121094 162.636719 133.121094 C 162.757812 133.125 162.851562 133.160156 162.921875 133.230469 C 162.988281 133.300781 163.023438 133.394531 163.023438 133.515625 L 162.933594 139.964844 C 162.925781 140.496094 163.050781 140.96875 163.308594 141.390625 C 163.566406 141.808594 163.929688 142.140625 164.398438 142.378906 C 164.867188 142.621094 165.40625 142.746094 166.011719 142.753906 C 166.617188 142.761719 167.15625 142.652344 167.632812 142.425781 C 168.105469 142.195312 168.480469 141.875 168.753906 141.464844 C 169.027344 141.050781 169.167969 140.582031 169.175781 140.054688 L 169.265625 133.605469 C 169.265625 133.484375 169.304688 133.386719 169.378906 133.320312 C 169.453125 133.25 169.546875 133.21875 169.660156 133.21875 C 169.78125 133.222656 169.875 133.257812 169.945312 133.328125 C 170.011719 133.398438 170.046875 133.492188 170.042969 133.613281 L 169.957031 140.0625 C 169.945312 140.75 169.769531 141.355469 169.429688 141.882812 C 169.089844 142.410156 168.621094 142.820312 168.023438 143.113281 C 167.429688 143.402344 166.753906 143.542969 166 143.535156 Z M 179.632812 142.914062 C 179.699219 143.039062 179.730469 143.136719 179.730469 143.214844 C 179.730469 143.3125 179.691406 143.382812 179.617188 143.433594 C 179.542969 143.484375 179.4375 143.511719 179.296875 143.507812 C 179.210938 143.507812 179.144531 143.488281 179.089844 143.453125 C 179.039062 143.417969 178.992188 143.367188 178.949219 143.296875 L 176.613281 139.441406 L 176.382812 139.4375 L 174.292969 139.410156 L 174.242188 143.050781 C 174.238281 143.160156 174.203125 143.253906 174.132812 143.328125 C 174.0625 143.398438 173.96875 143.433594 173.847656 143.433594 C 173.734375 143.433594 173.640625 143.394531 173.570312 143.320312 C 173.496094 143.246094 173.460938 143.152344 173.460938 143.039062 L 173.589844 133.664062 C 173.59375 133.542969 173.628906 133.449219 173.707031 133.378906 C 173.78125 133.3125 173.875 133.277344 173.988281 133.28125 L 176.464844 133.3125 C 177.089844 133.320312 177.644531 133.460938 178.132812 133.726562 C 178.625 133.992188 179.003906 134.363281 179.273438 134.835938 C 179.546875 135.308594 179.675781 135.839844 179.667969 136.441406 C 179.660156 137.152344 179.453125 137.761719 179.050781 138.269531 C 178.652344 138.78125 178.117188 139.128906 177.445312 139.308594 Z M 176.390625 138.65625 C 176.867188 138.664062 177.292969 138.574219 177.667969 138.390625 C 178.042969 138.203125 178.339844 137.9375 178.554688 137.59375 C 178.773438 137.25 178.882812 136.863281 178.890625 136.429688 C 178.894531 135.988281 178.796875 135.589844 178.585938 135.234375 C 178.378906 134.878906 178.09375 134.605469 177.722656 134.402344 C 177.355469 134.203125 176.929688 134.101562 176.457031 134.09375 L 174.363281 134.066406 L 174.300781 138.628906 Z M 188.207031 143.632812 C 188.101562 143.628906 188.011719 143.59375 187.933594 143.519531 C 187.855469 143.441406 187.820312 143.347656 187.820312 143.238281 L 187.949219 133.863281 C 187.953125 133.75 187.992188 133.65625 188.070312 133.585938 C 188.148438 133.511719 188.242188 133.476562 188.34375 133.476562 C 188.457031 133.480469 188.550781 133.515625 188.621094 133.59375 C 188.695312 133.667969 188.730469 133.761719 188.730469 133.871094 L 188.605469 142.933594 L 193.941406 143.007812 C 194.050781 143.011719 194.144531 143.042969 194.21875 143.109375 C 194.289062 143.175781 194.324219 143.261719 194.324219 143.367188 C 194.324219 143.46875 194.285156 143.554688 194.210938 143.617188 C 194.136719 143.683594 194.042969 143.710938 193.929688 143.710938 Z M 197.28125 143.757812 C 197.167969 143.757812 197.078125 143.71875 197.003906 143.644531 C 196.929688 143.570312 196.894531 143.476562 196.898438 143.363281 L 197.027344 133.988281 C 197.027344 133.875 197.066406 133.78125 197.140625 133.710938 C 197.214844 133.636719 197.308594 133.601562 197.421875 133.601562 C 197.535156 133.605469 197.625 133.644531 197.699219 133.71875 C 197.773438 133.792969 197.808594 133.886719 197.804688 134 L 197.675781 143.375 C 197.675781 143.484375 197.636719 143.578125 197.5625 143.652344 C 197.488281 143.722656 197.394531 143.757812 197.28125 143.757812 Z M 200.816406 143.804688 C 200.703125 143.804688 200.609375 143.765625 200.539062 143.691406 C 200.464844 143.617188 200.429688 143.523438 200.433594 143.410156 L 200.5625 134.035156 C 200.5625 133.925781 200.601562 133.832031 200.675781 133.757812 C 200.75 133.6875 200.84375 133.652344 200.957031 133.652344 L 207.199219 133.738281 C 207.304688 133.738281 207.394531 133.777344 207.472656 133.851562 C 207.546875 133.925781 207.585938 134.019531 207.582031 134.132812 C 207.582031 134.238281 207.542969 134.328125 207.464844 134.40625 C 207.382812 134.480469 207.292969 134.519531 207.1875 134.519531 L 201.335938 134.4375 L 201.28125 138.335938 L 205.578125 138.398438 C 205.691406 138.398438 205.78125 138.4375 205.855469 138.511719 C 205.929688 138.585938 205.964844 138.679688 205.960938 138.792969 C 205.960938 138.90625 205.921875 139 205.847656 139.078125 C 205.773438 139.152344 205.679688 139.191406 205.566406 139.191406 L 201.269531 139.132812 L 201.210938 143.421875 C 201.207031 143.535156 201.171875 143.628906 201.097656 143.699219 C 201.023438 143.773438 200.929688 143.808594 200.816406 143.804688 Z M 210.671875 143.941406 C 210.558594 143.941406 210.46875 143.902344 210.394531 143.828125 C 210.320312 143.753906 210.285156 143.660156 210.289062 143.546875 L 210.417969 134.171875 C 210.417969 134.058594 210.457031 133.96875 210.53125 133.894531 C 210.605469 133.824219 210.699219 133.785156 210.8125 133.789062 L 217.054688 133.875 C 217.160156 133.875 217.25 133.914062 217.328125 133.988281 C 217.402344 134.0625 217.441406 134.15625 217.441406 134.269531 C 217.4375 134.375 217.398438 134.464844 217.320312 134.542969 C 217.238281 134.617188 217.148438 134.65625 217.046875 134.65625 L 211.191406 134.574219 L 211.136719 138.472656 L 215.433594 138.535156 C 215.546875 138.535156 215.640625 138.574219 215.710938 138.648438 C 215.785156 138.722656 215.820312 138.816406 215.816406 138.929688 C 215.816406 139.042969 215.777344 139.136719 215.703125 139.214844 C 215.628906 139.289062 215.535156 139.328125 215.421875 139.328125 L 211.125 139.269531 L 211.074219 143.167969 L 216.925781 143.25 C 217.03125 143.25 217.121094 143.289062 217.199219 143.371094 C 217.273438 143.449219 217.3125 143.539062 217.308594 143.644531 C 217.308594 143.757812 217.269531 143.847656 217.191406 143.921875 C 217.109375 143.996094 217.019531 144.03125 216.914062 144.027344 Z M 210.671875 143.941406 "></path>
</g>
</svg>